<svg width="14" height="12" viewBox="0 0 14 12" fill="none" xmlns="http://www.w3.org/2000/svg">
<path d="M8.21522 0C7.57557 0 6.82792 0.472098 6.71518 2.58036C6.81012 2.57813 6.90387 2.57143 7 2.57143C7.10681 2.57143 7.21717 2.57701 7.32279 2.58036C7.39518 1.31362 7.7156 0.571429 8.21522 0.571429C8.42883 0.571429 8.54988 0.680804 8.77536 0.910714C9.03882 1.17969 9.38297 1.52902 10.057 1.66071C10.0464 1.58594 10.0381 1.50558 10.0381 1.42857C10.0381 1.30804 10.0511 1.1942 10.076 1.08036C9.6583 0.973214 9.43756 0.746652 9.22158 0.526786C8.98067 0.28125 8.70416 0 8.21522 0ZM11.8609 0.285714C11.1904 0.285714 10.6457 0.799107 10.6457 1.42857C10.6457 2.05804 11.1904 2.57143 11.8609 2.57143C12.5314 2.57143 13.0761 2.05804 13.0761 1.42857C13.0761 0.799107 12.5314 0.285714 11.8609 0.285714ZM7 3.14286C3.31399 3.14286 0.31628 4.90848 0.31628 7.42857C0.31628 9.94866 3.31399 12 7 12C10.686 12 13.6837 9.94866 13.6837 7.42857C13.6837 4.90848 10.686 3.14286 7 3.14286ZM1.6834 3.41071C1.23956 3.41071 0.818272 3.58147 0.496665 3.88393C-0.0266873 4.37612 -0.134681 5.08371 0.164378 5.66964C0.623646 4.83371 1.41401 4.12054 2.43342 3.58929C2.20201 3.47879 1.94567 3.41071 1.6834 3.41071ZM12.3166 3.41071C12.0543 3.41071 11.798 3.47879 11.5666 3.58929C12.586 4.12054 13.3764 4.83371 13.8356 5.66964C14.1347 5.08371 14.0267 4.37612 13.5033 3.88393C13.1817 3.58147 12.7604 3.41071 12.3166 3.41071ZM4.56956 5.71429C5.07273 5.71429 5.48097 6.09821 5.48097 6.57143C5.48097 7.04464 5.07273 7.42857 4.56956 7.42857C4.06638 7.42857 3.65814 7.04464 3.65814 6.57143C3.65814 6.09821 4.06638 5.71429 4.56956 5.71429ZM9.43044 5.71429C9.93362 5.71429 10.3419 6.09821 10.3419 6.57143C10.3419 7.04464 9.93362 7.42857 9.43044 7.42857C8.92727 7.42857 8.51903 7.04464 8.51903 6.57143C8.51903 6.09821 8.92727 5.71429 9.43044 5.71429ZM4.28474 8.85714C4.36069 8.86942 4.43545 8.9096 4.48411 8.97321C4.51615 9.01563 5.2282 9.91071 7 9.91071C8.79554 9.91071 9.50877 8.99107 9.51589 8.98214C9.61201 8.85379 9.80545 8.8192 9.94311 8.91071C10.0796 9.00112 10.1057 9.17411 10.0096 9.30357C9.97397 9.35156 9.10765 10.4821 7 10.4821C4.89116 10.4821 4.02603 9.35156 3.99043 9.30357C3.8943 9.17411 3.91922 9.00112 4.05688 8.91071C4.12572 8.86496 4.20879 8.84487 4.28474 8.85714Z" fill="white"/>
</svg>
