<svg width="14" height="12" viewBox="0 0 14 12" fill="none" xmlns="http://www.w3.org/2000/svg">
<path d="M14 1.80205C13.4847 2.02331 12.9312 2.1722 12.3502 2.23936C12.9436 1.89576 13.3986 1.35172 13.6129 0.703039C13.0583 1.02113 12.4434 1.25228 11.7886 1.37723C11.2647 0.837356 10.5184 0.5 9.69247 0.5C8.10623 0.5 6.82043 1.74374 6.82043 3.27694C6.82043 3.49456 6.84628 3.70697 6.89473 3.90948C4.50783 3.79391 2.39175 2.68813 0.974578 1.0076C0.727972 1.41784 0.586362 1.89472 0.586362 2.4044C0.586362 3.36753 1.09303 4.21769 1.86354 4.71539C1.39295 4.70081 0.94981 4.57587 0.562671 4.36814C0.562671 4.38012 0.562671 4.39105 0.562671 4.40302C0.562671 5.7488 1.55232 6.87124 2.86666 7.12582C2.62598 7.18934 2.37183 7.22318 2.10961 7.22318C1.92493 7.22318 1.74455 7.20548 1.56955 7.17372C1.93516 8.27689 2.99588 9.0802 4.25261 9.10258C3.26995 9.84758 2.03154 10.2917 0.685435 10.2917C0.453906 10.2917 0.225068 10.2786 0 10.2526C1.27126 11.0403 2.78051 11.5 4.40283 11.5C9.68601 11.5 12.5742 7.26847 12.5742 3.59868C12.5742 3.47842 12.5715 3.35868 12.5661 3.23946C13.1277 2.84744 13.615 2.35858 14 1.80205Z" fill="white"/>
</svg>
